<?xml version="1.0" encoding="utf-8"?>
<!-- Generator: Adobe Illustrator 18.1.1, SVG Export Plug-In . SVG Version: 6.00 Build 0)  -->
<svg version="1.1" id="Layer_1" xmlns="http://www.w3.org/2000/svg" xmlns:xlink="http://www.w3.org/1999/xlink" x="0px" y="0px"
	 viewBox="0 0 128 128" enable-background="new 0 0 128 128" xml:space="preserve">
<g>
	<path d="M64,0C50.2,0,39,11.2,39,25c0,6.9,2.8,13.2,7.3,17.7L64,60.4l17.7-17.7C86.2,38.2,89,31.9,89,25C89,11.2,77.8,0,64,0z
		 M64,42.5c-9.7,0-17.5-7.8-17.5-17.5S54.3,7.5,64,7.5S81.5,15.3,81.5,25S73.7,42.5,64,42.5z"/>
	<path d="M0,64c0,13.8,11.2,25,25,25c6.9,0,13.2-2.8,17.7-7.3L60.4,64L42.7,46.3C38.2,41.8,31.9,39,25,39C11.2,39,0,50.2,0,64z
		 M42.5,64c0,9.7-7.8,17.5-17.5,17.5S7.5,73.7,7.5,64S15.3,46.5,25,46.5S42.5,54.3,42.5,64z"/>
	<path d="M64,128c13.8,0,25-11.2,25-25c0-6.9-2.8-13.2-7.3-17.7L64,67.6L46.3,85.3C41.8,89.8,39,96.1,39,103
		C39,116.8,50.2,128,64,128z M64,85.5c9.7,0,17.5,7.8,17.5,17.5s-7.8,17.5-17.5,17.5s-17.5-7.8-17.5-17.5S54.3,85.5,64,85.5z"/>
	<path d="M128,64c0-13.8-11.2-25-25-25c-6.9,0-13.2,2.8-17.7,7.3L67.6,64l17.7,17.7C89.8,86.2,96.1,89,103,89
		C116.8,89,128,77.8,128,64z M85.5,64c0-9.7,7.8-17.5,17.5-17.5s17.5,7.8,17.5,17.5s-7.8,17.5-17.5,17.5S85.5,73.7,85.5,64z"/>
</g>
</svg>
