<?xml version="1.0" encoding="utf-8"?>
<!-- Generator: Adobe Illustrator 18.1.1, SVG Export Plug-In . SVG Version: 6.00 Build 0)  -->
<svg version="1.1" id="Layer_1" xmlns="http://www.w3.org/2000/svg" xmlns:xlink="http://www.w3.org/1999/xlink" x="0px" y="0px"
	 viewBox="0 0 124 144" enable-background="new 0 0 124 144" xml:space="preserve">
<g>
	<path d="M61,0c11.5,0,17.4,8.1,17.4,16.5c0,8.4-6.1,17.7-18.2,17.7H48.9V0H61z M60.3,26.5c6.7,0,9.9-5,9.9-10.1
		c0-4.7-2.8-8.8-9-8.8h-4.3v18.9H60.3z"/>
	<path d="M111.3,34.2h-8V21.2L90.9,0h9.3l7.2,13.4L114.6,0h9.1l-12.4,21.2V34.2z"/>
	<path d="M32.2,75.5c0,9.5-7.4,14.4-15.5,14.4c-11,0-16.7-9.1-16.7-18c0-8.9,5.7-17.8,16.9-17.8c8.3,0,14.6,4.9,15.2,13.1h-8.2
		c0-3.3-3.2-5.6-7.2-5.6c-5.8,0-8.7,5.1-8.7,10.2c0,5.2,3,10.6,8.9,10.6c3.7,0,7-2.1,7.1-6.8H32.2z"/>
	<path d="M56,81.9L53.5,89h-8.7L58,54.8h8L79.7,89h-8.9l-2.6-7.1H56z M62,64.5l-3.4,9.7h6.8L62,64.5z"/>
	<path d="M106.6,54.8c11.5,0,17.4,8.1,17.4,16.5c0,8.4-6.1,17.7-18.2,17.7H94.5V54.8H106.6z M105.9,81.4c6.7,0,9.9-5,9.9-10.1
		c0-4.7-2.8-8.8-9-8.8h-4.3v18.9H105.9z"/>
	<path d="M78,129.6c0,9.5-7.4,14.4-15.5,14.4c-11,0-16.7-9.1-16.7-18c0-8.9,5.7-17.8,16.9-17.8c8.3,0,14.6,4.9,15.2,13.1h-8.2
		c0-3.3-3.2-5.6-7.2-5.6c-5.8,0-8.7,5.1-8.7,10.2c0,5.2,3,10.6,8.9,10.6c3.7,0,7-2.1,7.1-6.8H78z"/>
</g>
</svg>
