<?xml version="1.0" encoding="iso-8859-1"?>
<!-- Generator: Adobe Illustrator 16.0.0, SVG Export Plug-In . SVG Version: 6.00 Build 0)  -->
<!DOCTYPE svg PUBLIC "-//W3C//DTD SVG 1.1//EN" "http://www.w3.org/Graphics/SVG/1.1/DTD/svg11.dtd">
<svg version="1.1" id="Layer_1" xmlns="http://www.w3.org/2000/svg" xmlns:xlink="http://www.w3.org/1999/xlink" x="0px" y="0px"
	 width="945.729px" height="429.192px" viewBox="0 0 945.729 429.192" style="enable-background:new 0 0 945.729 429.192;"
	 xml:space="preserve">
<path style="stroke:#000000;stroke-miterlimit:10;" d="M259.167,427.664l-221.817,0.417c0,0-51.188,8.114-32.902-34.762
	c0,0,111.842-284.18,114.56-292.288c2.719-8.108,17.063-69.471,41.134-4.875c14.286,34.062,14.702,33.888,123.401,301.038
	C283.542,397.194,296.949,427.664,259.167,427.664z"/>
<path style="stroke:#000000;stroke-miterlimit:10;" d="M179.976,0.913l244.667-0.175c0,0,23.333-4.425,35.012,24.864
	c13.162,33.006,136.384,331.362,136.384,331.362s38.511,70.948,11.698,70.948H361.543c0,0-38.107,4.793-45.42-25.677
	c-6.296-26.235-155.147-371.823-155.147-371.823S149.642,0.5,179.976,0.913z"/>
<path style="stroke:#000000;stroke-miterlimit:10;" d="M507.976,0.913l244.667-0.175c0,0,23.333-4.425,35.013,24.864
	c13.162,33.006,136.384,331.362,136.384,331.362s38.511,70.948,11.698,70.948H689.543c0,0-38.107,4.793-45.42-25.677
	c-6.296-26.235-155.147-371.823-155.147-371.823S477.643,0.5,507.976,0.913z"/>
</svg>
