<?xml version="1.0" encoding="utf-8"?>
<!-- Generator: Adobe Illustrator 18.1.1, SVG Export Plug-In . SVG Version: 6.00 Build 0)  -->
<svg version="1.1" id="Layer_1" xmlns="http://www.w3.org/2000/svg" xmlns:xlink="http://www.w3.org/1999/xlink" x="0px" y="0px"
	 viewBox="0 0 24 24" enable-background="new 0 0 24 24" xml:space="preserve">
<path id="star_3_" fill="#939598" d="M22.8,8.6h-6.5c-0.5,0-0.9-0.3-1.1-0.8l-2.1-6.3c-0.4-1.1-1.9-1.1-2.2,0L8.9,7.8
	C8.7,8.2,8.3,8.6,7.8,8.6H1.2C0,8.6-0.4,10,0.5,10.7l5.3,3.7c0.4,0.3,0.6,0.8,0.4,1.3l-2,6.1c-0.4,1.1,0.9,2,1.8,1.3l5.3-3.9
	c0.4-0.3,1-0.3,1.4,0l5.4,3.8c0.9,0.7,2.1-0.2,1.8-1.3l-2-6.1c-0.2-0.5,0-1,0.4-1.3l5.2-3.7C24.4,10,24,8.6,22.8,8.6z"/>
</svg>
